<svg width="36" height="40" viewBox="0 0 36 40" fill="none" xmlns="http://www.w3.org/2000/svg">
<path d="M23.2102 18.6303C23.2102 23.8523 17.9918 25.4429 17.9918 25.4429C17.9918 25.4429 12.7734 23.9945 12.7734 18.6303V13.8955H23.2076V18.6303H23.2102Z" fill="#E7691A"/>
<path d="M23.2102 32.528C23.2102 37.75 17.9918 39.3406 17.9918 39.3406C17.9918 39.3406 12.7734 37.8922 12.7734 32.528V27.7932H23.2076V32.528H23.2102Z" fill="#E7691A"/>
<path d="M23.2102 4.73482C23.2102 9.95681 17.9918 11.5474 17.9918 11.5474C17.9918 11.5474 12.7734 10.099 12.7734 4.73482V0H23.2076V4.73482H23.2102Z" fill="#E7691A"/>
<path d="M10.4368 9.77022C10.4368 14.9922 5.2184 16.5828 5.2184 16.5828C5.2184 16.5828 0 15.1344 0 9.77022V5.0354H10.4368V9.77022Z" fill="#E7691A"/>
<path d="M10.4368 24.4604C10.4368 29.6824 5.2184 31.273 5.2184 31.273C5.2184 31.273 0 29.8246 0 24.4604V19.7256H10.4368V24.4604Z" fill="#E7691A"/>
<path d="M35.9954 9.77022C35.9954 14.9922 30.777 16.5828 30.777 16.5828C30.777 16.5828 25.5586 15.1344 25.5586 9.77022V5.0354H35.9927V9.77022H35.9954Z" fill="#E7691A"/>
<path d="M35.9954 24.4604C35.9954 29.6824 30.777 31.273 30.777 31.273C30.777 31.273 25.5586 29.8246 25.5586 24.4604V19.7256H35.9927V24.4604H35.9954Z" fill="#E7691A"/>
</svg>
