<svg width="507" height="96" viewBox="0 0 507 96" fill="none" xmlns="http://www.w3.org/2000/svg">
<g clip-path="url(#clip0_1846_8820)">
<path d="M55.6056 45.4406C55.6056 58.1765 43.1036 62.0569 43.1036 62.0569C43.1036 62.0569 30.6016 58.5238 30.6016 45.4406V33.8975H55.598V45.4406H55.6056Z" fill="white"/>
<path d="M55.6056 79.3322C55.6056 92.0681 43.1036 95.9485 43.1036 95.9485C43.1036 95.9485 30.6016 92.4154 30.6016 79.3322V67.7891H55.598V79.3322H55.6056Z" fill="#E7691A"/>
<path d="M55.6056 11.5402C55.6056 24.2761 43.1036 28.1565 43.1036 28.1565C43.1036 28.1565 30.6016 24.6234 30.6016 11.5402V-0.00292969H55.598V11.5402H55.6056Z" fill="white"/>
<path d="M25.0001 23.8217C25.0001 36.5576 12.4981 40.438 12.4981 40.438C12.4981 40.438 -0.00390625 36.9049 -0.00390625 23.8217V12.2786H25.0001V23.8217Z" fill="white"/>
<path d="M25.0001 59.6513C25.0001 72.3872 12.4981 76.2676 12.4981 76.2676C12.4981 76.2676 -0.00390625 72.7345 -0.00390625 59.6513V48.1082H25.0001V59.6513Z" fill="#E7691A"/>
<path d="M86.2228 23.8217C86.2228 36.5576 73.7208 40.438 73.7208 40.438C73.7208 40.438 61.2188 36.9049 61.2188 23.8217V12.2786H86.2152V23.8217H86.2228Z" fill="white"/>
<path d="M86.2228 59.6513C86.2228 72.3872 73.7208 76.2676 73.7208 76.2676C73.7208 76.2676 61.2188 72.7345 61.2188 59.6513V48.1082H86.2152V59.6513H86.2228Z" fill="#E7691A"/>
<path d="M211.756 12.061C210.329 12.061 209.461 12.9972 209.461 14.5977C209.461 16.1981 210.329 17.172 211.756 17.172C213.289 17.172 214.262 16.2359 214.262 14.5977C214.262 12.9594 213.289 12.061 211.756 12.061Z" fill="white"/>
<path d="M208.634 14.6069C208.634 13.0064 207.833 12.0703 206.369 12.0703C204.806 12.0703 203.832 13.0064 203.832 14.6069C203.832 16.2074 204.806 17.1813 206.369 17.1813C207.833 17.1813 208.634 16.2452 208.634 14.6069Z" fill="white"/>
<path d="M120.976 29.9665H120.485L114.189 19.2463H108.066V20.5373L117.669 35.9835C116.937 36.7157 115.933 37.0932 114.363 37.0932C113.872 37.0932 113.321 36.9875 112.694 36.9196V42.3476C113.668 42.4835 114.536 42.559 115.337 42.559C119.549 42.559 121.671 40.5735 123.792 36.3987L131.795 20.5297V19.2388H126.329L120.969 29.959L120.976 29.9665Z" fill="white"/>
<path d="M147.428 29.5153L155.363 20.539V19.248H149.24L141.97 27.5977H139.743V19.248H133.824V41.8662H139.743V32.4747H142L149.935 41.8662H156.511V40.5828L147.428 30.1721V29.5153Z" fill="white"/>
<path d="M171.562 19.248H159.316V41.8662H165.235V34.664H171.569C176.235 34.664 179.677 31.6367 179.677 26.9409C179.677 22.2452 176.235 19.248 171.569 19.248H171.562ZM171.562 29.168H165.228V24.7516H171.562C172.883 24.7516 173.751 25.5518 173.751 26.9409C173.751 28.33 172.883 29.168 171.562 29.168Z" fill="white"/>
<path d="M187.184 19.248L178.102 40.5752V41.8662H184.051L185.545 38.1745H195.843L197.338 41.8662H203.46V40.5752L194.205 19.248H187.176H187.184ZM187.637 33.0258L190.422 26.0652H190.943L193.759 33.0258H187.637Z" fill="white"/>
<path d="M211.895 19.248H205.977V41.8662H211.895V19.248Z" fill="white"/>
<path d="M232.323 27.4996H222.509V19.248H216.598V41.8662H222.509V32.9956H232.323V41.8662H238.242V19.248H232.323V27.4996Z" fill="white"/>
<path d="M253.666 18.5847C246.464 18.5847 241.172 23.1748 241.172 30.4147C241.172 37.6546 246.464 42.2824 253.666 42.2824C259.759 42.2824 264.523 38.8021 265.844 34.4159V32.9513H259.751C258.883 35.3898 256.656 36.7789 253.659 36.7789C249.763 36.7789 247.189 34.4159 247.189 30.4147C247.189 26.4135 249.763 24.0807 253.659 24.0807C256.648 24.0807 258.845 25.4698 259.714 27.9083H265.836V26.4437C264.273 21.5063 259.434 18.5771 253.659 18.5771L253.666 18.5847Z" fill="white"/>
<path d="M281.196 26.4502H274.794V19.248H268.875V41.8662H281.196C285.861 41.8662 289.304 38.8389 289.304 34.1431C289.304 29.4474 285.861 26.4502 281.196 26.4502ZM281.196 36.3702H274.794V31.9538H281.196C282.517 31.9538 283.385 32.754 283.385 34.1431C283.385 35.5322 282.517 36.3702 281.196 36.3702Z" fill="white"/>
<path d="M305.268 29.5153L313.203 20.539V19.248H307.08L299.802 27.5977H297.575V19.248H291.664V41.8662H297.575V32.4747H299.84L307.775 41.8662H314.35V40.5828L305.268 30.1721V29.5153Z" fill="white"/>
<path d="M324.758 19.248L315.676 40.5752V41.8662H321.625L323.12 38.1745H333.417L334.912 41.8662H341.035V40.5752L331.779 19.248H324.75H324.758ZM325.211 33.0258L327.997 26.0652H328.518L331.333 33.0258H325.211Z" fill="white"/>
<path d="M122.538 56.3914H110.293V79.0095H116.212V71.8073H122.546C127.211 71.8073 130.654 68.78 130.654 64.0843C130.654 59.3885 127.211 56.3914 122.546 56.3914H122.538ZM122.538 66.3113H116.204V61.8949H122.538C123.859 61.8949 124.728 62.6952 124.728 64.0843C124.728 65.4733 123.859 66.3113 122.538 66.3113Z" fill="white"/>
<path d="M137.938 56.3914L128.855 77.7186V79.0095H134.804L136.299 75.3178H146.597L148.092 79.0095H154.214V77.7186L144.959 56.3914H137.93H137.938ZM138.391 70.1691L141.176 63.2085H141.697L144.513 70.1691H138.391Z" fill="white"/>
<path d="M178.455 56.3989H159.355L158.623 71.4978C158.555 72.7888 157.928 73.4456 156.954 73.5135H154.969V83.8865H160.435L160.57 79.0171H176.092L175.707 83.8865H181.203L182.283 73.5135H178.455V56.3914V56.3989ZM172.536 73.5211H163.839C164.292 72.3735 164.534 71.0146 164.602 69.5878L164.987 61.8949H172.536V73.5135V73.5211Z" fill="white"/>
<path d="M192.121 56.3914L183.039 77.7186V79.0095H188.988L190.483 75.3178H200.78L202.275 79.0095H208.398V77.7186L199.142 56.3914H192.114H192.121ZM192.574 70.1691L195.36 63.2085H195.881L198.697 70.1691H192.574Z" fill="white"/>
<path d="M237.815 67.4658V67.1865C239.552 66.039 240.707 64.4007 240.707 62.4907C240.707 58.9425 236.388 55.6736 230.236 55.6736C225.087 55.6736 220.633 58.4216 219.168 63.5401V65.0349H225.155C225.645 62.6719 227.903 61.1016 230.341 61.1016C233.052 61.1016 234.478 61.9019 234.478 62.9815C234.478 64.129 233.263 64.9292 231.489 64.9972H228.779V70.0779H231.67C233.338 70.0779 235.007 70.7725 235.007 71.8898C235.007 73.143 233.686 73.9433 230.968 73.9433C228.25 73.9433 225.849 72.5542 225.155 70.0477H219.168V71.5425C220.701 76.8649 225.532 79.4393 230.862 79.4393C236.532 79.4393 241.228 76.4799 241.228 72.6523C241.228 70.4252 239.869 68.6511 237.815 67.4658Z" fill="white"/>
<path d="M257.311 64.086H250.977V61.5494H264.023V56.4006H245.059V79.0188H257.304C261.97 79.0188 265.412 76.0972 265.412 71.5373C265.412 66.9774 261.97 64.0935 257.304 64.0935L257.311 64.086ZM257.311 73.5152H250.977V69.582H257.311C258.633 69.582 259.501 70.2463 259.501 71.5297C259.501 72.8131 258.633 73.5152 257.311 73.5152Z" fill="white"/>
<path d="M281.433 56.3914H269.188V79.0095H275.106V71.8073H281.44C286.106 71.8073 289.549 68.78 289.549 64.0843C289.549 59.3885 286.106 56.3914 281.44 56.3914H281.433ZM281.433 66.3113H275.099V61.8949H281.433C282.754 61.8949 283.622 62.6952 283.622 64.0843C283.622 65.4733 282.754 66.3113 281.433 66.3113Z" fill="white"/>
<path d="M303.284 55.739C296.081 55.739 290.789 60.3291 290.789 67.569C290.789 74.8089 296.081 79.4367 303.284 79.4367C310.486 79.4367 315.778 74.8089 315.778 67.569C315.778 60.3291 310.456 55.739 303.284 55.739ZM303.284 73.9407C299.388 73.9407 296.814 71.5778 296.814 67.5766C296.814 63.5753 299.388 61.2426 303.284 61.2426C307.179 61.2426 309.753 63.6055 309.753 67.5766C309.753 71.5476 307.179 73.9407 303.284 73.9407Z" fill="white"/>
<path d="M317.703 63.8729C317.703 67.3532 319.689 69.8596 322.716 70.8637L317.847 77.7186V79.0095H324.181L328.944 71.8073H333.467V79.0095H339.385V56.3914H325.811C321.146 56.3914 317.703 59.313 317.703 63.8729ZM333.467 61.8874V66.3038H325.985C324.664 66.3038 323.796 65.5035 323.796 64.1144C323.796 62.7253 324.664 61.8874 325.985 61.8874H333.467Z" fill="white"/>
<path d="M356.57 56.3914H344.324V79.0095H350.243V71.8073H356.577C361.243 71.8073 364.685 68.78 364.685 64.0843C364.685 59.3885 361.243 56.3914 356.577 56.3914H356.57ZM356.57 66.3113H350.236V61.8949H356.57C357.891 61.8949 358.759 62.6952 358.759 64.0843C358.759 65.4733 357.891 66.3113 356.57 66.3113Z" fill="white"/>
<path d="M372.888 56.3914H366.969V79.0095H372.888V56.3914Z" fill="white"/>
<path d="M396.122 67.5947V67.2475C397.616 66.1377 398.56 64.6052 398.56 62.7253C398.56 58.8298 395.08 56.4291 390.414 56.4291V56.3914H377.746V79.0095H390.829C395.495 79.0095 399.006 76.5031 399.006 72.5019C399.006 70.4484 397.858 68.7423 396.114 67.5947H396.122ZM383.665 61.5401H390.414C391.735 61.5401 392.604 62.1667 392.604 63.2463C392.604 64.3258 391.735 65.0204 390.414 65.0204H383.665V61.5401ZM390.829 73.8608H383.665V70.1691H390.829C392.151 70.1691 393.019 70.8335 393.019 71.981C393.019 73.1285 392.151 73.8608 390.829 73.8608Z" fill="white"/>
</g>
<defs>
<clipPath id="clip0_1846_8820">
<rect width="507" height="96" fill="white"/>
</clipPath>
</defs>
</svg>
