<svg width="254" height="54" viewBox="0 0 254 54" fill="none" xmlns="http://www.w3.org/2000/svg">
<path d="M0 8C0 3.58172 3.58172 0 8 0L195.506 0C201.078 0 204.943 5.55352 203.008 10.7785L188.934 48.7785C187.772 51.9168 184.779 54 181.432 54H8C3.58172 54 0 50.4183 0 46V8Z" fill="url(#paint0_linear_88_3416)"/>
<path d="M58.472 32V22.336H55.208V20.8H63.416V22.336H60.152V32H58.472ZM65.9519 32.144C64.2239 32.144 63.0399 31.136 63.0399 29.648V29.568C63.0399 27.792 64.7359 26.864 68.0959 26.864H68.8159V26.4C68.8159 25.504 68.1119 24.944 66.9279 24.944H66.8959C65.9999 24.944 64.9439 25.28 64.1439 25.808L63.4559 24.608C64.4959 23.952 65.6959 23.52 66.9759 23.52H67.0399C69.0559 23.52 70.3519 24.624 70.3519 26.368V30.464C70.3519 30.976 70.4799 31.552 70.6399 32H69.0719C68.9759 31.76 68.8959 31.36 68.8639 30.992C68.0639 31.728 67.0399 32.144 65.9519 32.144ZM66.1599 30.752C67.2319 30.752 68.1919 30.288 68.8159 29.6V28.064H68.2879C65.7439 28.064 64.6079 28.544 64.6079 29.536V29.584C64.6079 30.272 65.2319 30.752 66.1599 30.752ZM72.6408 32V20.48H74.2248V27.248H74.3368L78.0168 23.68H79.8728L75.8248 27.552L80.0488 32H78.0488L74.3368 27.968H74.2248V32H72.6408ZM84.3914 32.128C81.9274 32.128 80.1994 30.4 80.1994 28.016V27.808C80.1994 25.344 81.9754 23.568 84.3754 23.568H84.4234C86.7114 23.568 88.3114 25.152 88.3114 27.424V28.416H81.8154C81.9754 29.76 83.0154 30.704 84.5034 30.704H84.5354C85.6234 30.704 86.5674 30.192 87.0474 29.536L88.0714 30.448C87.2874 31.504 85.8794 32.128 84.4554 32.128H84.3914ZM81.8634 27.184H86.7914C86.6954 25.856 85.7194 24.928 84.3594 24.928H84.3434C83.0314 24.928 82.0714 25.824 81.8634 27.184ZM96.8524 32.064C95.3324 32.064 94.3564 31.36 94.3564 29.664V25.04H93.2524V23.936C93.5724 23.824 93.9884 23.728 94.3564 23.696V21.76L95.9404 21.552V23.68H98.6444V25.04H95.9404V29.376C95.9404 30.32 96.4044 30.64 97.2204 30.64C97.6364 30.64 98.4204 30.56 98.7564 30.464V31.776C98.3244 31.968 97.4604 32.064 96.8524 32.064ZM100.205 32V20.48H101.789V24.816C102.541 24.016 103.613 23.536 104.845 23.536C106.749 23.536 107.789 24.656 107.789 26.688V32H106.205V26.992C106.205 25.664 105.597 24.992 104.317 24.992C102.781 24.992 101.789 25.92 101.789 27.344V32H100.205ZM113.643 32.128C111.179 32.128 109.451 30.4 109.451 28.016V27.808C109.451 25.344 111.227 23.568 113.627 23.568H113.675C115.963 23.568 117.563 25.152 117.563 27.424V28.416H111.067C111.227 29.76 112.267 30.704 113.755 30.704H113.787C114.875 30.704 115.819 30.192 116.299 29.536L117.323 30.448C116.539 31.504 115.131 32.128 113.707 32.128H113.643ZM111.115 27.184H116.043C115.947 25.856 114.971 24.928 113.611 24.928H113.595C112.283 24.928 111.323 25.824 111.115 27.184ZM126.104 32.064C124.584 32.064 123.608 31.36 123.608 29.664V25.04H122.504V23.936C122.824 23.824 123.24 23.728 123.608 23.696V21.76L125.192 21.552V23.68H127.896V25.04H125.192V29.376C125.192 30.32 125.656 30.64 126.472 30.64C126.888 30.64 127.672 30.56 128.008 30.464V31.776C127.576 31.968 126.712 32.064 126.104 32.064ZM132.995 32.128C130.531 32.128 128.803 30.4 128.803 28.016V27.808C128.803 25.344 130.579 23.568 132.979 23.568H133.027C135.315 23.568 136.915 25.152 136.915 27.424V28.416H130.419C130.579 29.76 131.619 30.704 133.107 30.704H133.139C134.227 30.704 135.171 30.192 135.651 29.536L136.675 30.448C135.891 31.504 134.483 32.128 133.059 32.128H132.995ZM130.467 27.184H135.395C135.299 25.856 134.323 24.928 132.963 24.928H132.947C131.635 24.928 130.675 25.824 130.467 27.184ZM141.657 32.144C140.265 32.144 138.889 31.712 137.913 30.912L138.761 29.744C139.609 30.4 140.649 30.752 141.689 30.752C142.761 30.752 143.385 30.352 143.385 29.68C143.385 28.816 142.329 28.656 140.937 28.272C139.625 27.952 138.249 27.52 138.249 25.984C138.249 24.48 139.465 23.536 141.321 23.536C142.473 23.536 143.721 23.92 144.585 24.576L143.817 25.76C143.129 25.248 142.089 24.928 141.225 24.928C140.265 24.928 139.785 25.312 139.785 25.872C139.785 26.464 140.361 26.736 141.849 27.088C143.305 27.424 144.953 27.856 144.953 29.6C144.953 31.168 143.625 32.144 141.657 32.144ZM149.112 32.064C147.592 32.064 146.616 31.36 146.616 29.664V25.04H145.512V23.936C145.832 23.824 146.248 23.728 146.616 23.696V21.76L148.2 21.552V23.68H150.904V25.04H148.2V29.376C148.2 30.32 148.664 30.64 149.48 30.64C149.896 30.64 150.68 30.56 151.016 30.464V31.776C150.584 31.968 149.72 32.064 149.112 32.064Z" fill="white"/>
<path d="M254 46C254 50.4183 250.418 54 246 54H203.494C197.922 54 194.057 48.4465 195.992 43.2215L210.066 5.22149C211.228 2.08316 214.221 0 217.568 0H246C250.418 0 254 3.58172 254 8V46Z" fill="url(#paint1_linear_88_3416)"/>
<path d="M233.53 27.5303C233.823 27.2374 233.823 26.7626 233.53 26.4697L228.757 21.6967C228.464 21.4038 227.99 21.4038 227.697 21.6967C227.404 21.9896 227.404 22.4645 227.697 22.7574L231.939 27L227.697 31.2426C227.404 31.5355 227.404 32.0104 227.697 32.3033C227.99 32.5962 228.464 32.5962 228.757 32.3033L233.53 27.5303ZM219 27V27.75H233V27V26.25H219V27Z" fill="white"/>
<defs>
<linearGradient id="paint0_linear_88_3416" x1="91" y1="-29.5" x2="91" y2="45.5" gradientUnits="userSpaceOnUse">
<stop stop-color="#FBA050"/>
<stop offset="1" stop-color="#E66618"/>
</linearGradient>
<linearGradient id="paint1_linear_88_3416" x1="223" y1="48" x2="223" y2="-18.5" gradientUnits="userSpaceOnUse">
<stop stop-color="#E66618"/>
<stop offset="1" stop-color="#FBA050"/>
</linearGradient>
</defs>
</svg>
